<svg id="artwork" xmlns="http://www.w3.org/2000/svg" xmlns:xlink="http://www.w3.org/1999/xlink" width="502" height="282" viewBox="0 0 502 282">
  <defs>
    <style>
      .cls-1, .cls-8 {
        fill: #eaedf3;
      }

      .cls-1 {
        opacity: 0.4;
      }

      .cls-1, .cls-5 {
        isolation: isolate;
      }

      .cls-2 {
        fill: url(#linear-gradient);
      }

      .cls-3 {
        fill: #fff;
      }

      .cls-4 {
        fill: #c9d3e0;
      }

      .cls-5, .cls-7 {
        fill: #d9725c;
      }

      .cls-5, .cls-6 {
        opacity: 0.8;
      }

      .cls-9 {
        fill: url(#linear-gradient-2);
      }

      .cls-10 {
        fill: url(#linear-gradient-3);
      }

      .cls-11 {
        fill: url(#linear-gradient-4);
      }

      .cls-12 {
        fill: url(#linear-gradient-5);
      }
    </style>
    <linearGradient id="linear-gradient" x1="96" y1="40" x2="394" y2="40" gradientTransform="matrix(1, 0, 0, -1, 0, 284)" gradientUnits="userSpaceOnUse">
      <stop offset="0" stop-color="#eaedf3"/>
      <stop offset="1" stop-color="#eaedf3"/>
    </linearGradient>
    <linearGradient id="linear-gradient-2" x1="396" x2="417" xlink:href="#linear-gradient"/>
    <linearGradient id="linear-gradient-3" x1="419" x2="427" xlink:href="#linear-gradient"/>
    <linearGradient id="linear-gradient-4" x1="63" x2="84" xlink:href="#linear-gradient"/>
    <linearGradient id="linear-gradient-5" x1="86" x2="94" xlink:href="#linear-gradient"/>
  </defs>
  <title>masspay-csv-02</title>
  <path class="cls-1" d="M344.1,243a123.8,123.8,0,1,0-210.6,0Z"/>
  <path class="cls-2" d="M393,245H97a1,1,0,0,1,0-2H393a1,1,0,0,1,0,2Z"/>
  <g>
    <path class="cls-3" d="M324,235H154V135a4.012,4.012,0,0,1,4-4H320a4.012,4.012,0,0,1,4,4Z"/>
    <path class="cls-4" d="M325,236H153V135a4.951,4.951,0,0,1,5-5H320a4.951,4.951,0,0,1,5,5Zm-170-2H323V135a2.946,2.946,0,0,0-3-3H158a2.946,2.946,0,0,0-3,3Z"/>
  </g>
  <g>
    <path class="cls-3" d="M332,235H146v5a4.012,4.012,0,0,0,4,4H328a4.012,4.012,0,0,0,4-4Z"/>
    <path class="cls-4" d="M328,245H150a4.951,4.951,0,0,1-5-5v-6H333v6A4.951,4.951,0,0,1,328,245Zm-181-9v4a2.946,2.946,0,0,0,3,3H328a2.946,2.946,0,0,0,3-3v-4Z"/>
  </g>
  <path class="cls-4" d="M317,138v96H161V138H317m1-1H160v98H318V137Z"/>
  <path class="cls-4" d="M249,236h0a2.006,2.006,0,0,1-2,2H231a2.006,2.006,0,0,1-2-2h20m0-1H228v1a2.946,2.946,0,0,0,3,3h16a2.946,2.946,0,0,0,3-3v-1Z"/>
  <rect class="cls-4" x="147" y="240" width="184" height="1"/>
  <path class="cls-3" d="M263,161.1V150H226.6L211,165.6V217h10.5a12.445,12.445,0,0,1-1-2H213V167h14a.945.945,0,0,0,1-1V152h33v9H237a4.012,4.012,0,0,0-4,4v10a4.012,4.012,0,0,0,4,4h24v36h-6.9c-.3.7-.7,1.4-1,2H263V178.9a3.99,3.99,0,0,0,3-3.9V165A4.079,4.079,0,0,0,263,161.1ZM226,165H214.4L226,153.4Zm38,10a2.006,2.006,0,0,1-2,2H237a2.006,2.006,0,0,1-2-2V165a2.006,2.006,0,0,1,2-2h25a2.006,2.006,0,0,1,2,2Z"/>
  <g>
    <path class="cls-3" d="M242.9,173.9a4,4,0,0,1,0-8,4.381,4.381,0,0,1,3.1,1.2l-.9,1a3.029,3.029,0,0,0-2.2-1,2.808,2.808,0,0,0,0,5.6,2.865,2.865,0,0,0,2.2-1l.9.9A3.764,3.764,0,0,1,242.9,173.9Z"/>
    <path class="cls-3" d="M250.5,169.2c1.6.4,2.5,1,2.5,2.3,0,1.5-1.1,2.3-2.8,2.3a5.163,5.163,0,0,1-3.3-1.2l.8-1a3.74,3.74,0,0,0,2.5,1c.8,0,1.4-.4,1.4-1s-.3-.9-1.8-1.2c-1.7-.4-2.6-.9-2.6-2.3s1.1-2.3,2.7-2.3a4.019,4.019,0,0,1,2.8,1l-.7,1a3.678,3.678,0,0,0-2.1-.8c-.8,0-1.3.4-1.3.9C248.7,168.6,249.1,168.9,250.5,169.2Z"/>
    <path class="cls-3" d="M259.9,166h1.5l-3.2,7.9H257l-3.2-7.9h1.5l2.4,6Z"/>
  </g>
  <path class="cls-3" d="M237,222.4a17,17,0,1,1,17-17A16.986,16.986,0,0,1,237,222.4Zm0-32a15,15,0,1,0,15,15A14.98,14.98,0,0,0,237,190.4Z"/>
  <path class="cls-3" d="M237,218.4a13,13,0,1,1,13-13A12.974,12.974,0,0,1,237,218.4Zm0-24a11,11,0,1,0,11,11A10.968,10.968,0,0,0,237,194.4Z"/>
  <path class="cls-3" d="M237,214.4a9,9,0,1,1,9-9A8.963,8.963,0,0,1,237,214.4Zm0-16a7,7,0,1,0,7,7A6.957,6.957,0,0,0,237,198.4Z"/>
  <path class="cls-3" d="M237,210.4a5,5,0,1,1,5-5A4.951,4.951,0,0,1,237,210.4Zm0-8a3,3,0,1,0,3,3A2.946,2.946,0,0,0,237,202.4Z"/>
  <path class="cls-3" d="M247.2,230.3a1.05,1.05,0,0,1-.9-.5l-2.3-4.4-4.1,2.1a.746.746,0,0,1-.9,0,1.02,1.02,0,0,1-.5-.8l-1.7-19.6a1.231,1.231,0,0,1,.5-1,1.073,1.073,0,0,1,1.1.1l15.2,12.5a.975.975,0,0,1,.4.9,1.02,1.02,0,0,1-.5.8l-4.1,2.1,2.3,4.4a1.949,1.949,0,0,1,.1.8,1.024,1.024,0,0,1-.5.6l-3.6,1.9A.9.9,0,0,1,247.2,230.3Zm-2.7-7.2a1.05,1.05,0,0,1,.9.5l2.3,4.4,1.9-1-2.3-4.4a1.949,1.949,0,0,1-.1-.8,1.024,1.024,0,0,1,.5-.6l3.6-1.9-12.2-10,1.3,15.7,3.6-1.9Z"/>
  <path class="cls-4" d="M263.7,149.9a.6.6,0,0,1-.4-.1.992.992,0,0,1-.5-1.3l.4-.9a.985.985,0,1,1,1.8.8l-.4.9A1.149,1.149,0,0,1,263.7,149.9Z"/>
  <path class="cls-5" d="M263,161.1V150H226.6L211,165.6V217h10.5a12.445,12.445,0,0,1-1-2H213V167h14a.945.945,0,0,0,1-1V152h33v9H237a4.012,4.012,0,0,0-4,4v10a4.012,4.012,0,0,0,4,4h24v36h-6.9c-.3.7-.7,1.4-1,2H263V178.9a3.99,3.99,0,0,0,3-3.9V165A4.079,4.079,0,0,0,263,161.1ZM226,165H214.4L226,153.4Zm38,10a2.006,2.006,0,0,1-2,2H237a2.006,2.006,0,0,1-2-2V165a2.006,2.006,0,0,1,2-2h25a2.006,2.006,0,0,1,2,2Z"/>
  <g class="cls-6">
    <path class="cls-7" d="M242.9,173.9a4,4,0,0,1,0-8,4.381,4.381,0,0,1,3.1,1.2l-.9,1a3.029,3.029,0,0,0-2.2-1,2.808,2.808,0,0,0,0,5.6,2.865,2.865,0,0,0,2.2-1l.9.9A3.764,3.764,0,0,1,242.9,173.9Z"/>
    <path class="cls-7" d="M250.5,169.2c1.6.4,2.5,1,2.5,2.3,0,1.5-1.1,2.3-2.8,2.3a5.163,5.163,0,0,1-3.3-1.2l.8-1a3.74,3.74,0,0,0,2.5,1c.8,0,1.4-.4,1.4-1s-.3-.9-1.8-1.2c-1.7-.4-2.6-.9-2.6-2.3s1.1-2.3,2.7-2.3a4.019,4.019,0,0,1,2.8,1l-.7,1a3.678,3.678,0,0,0-2.1-.8c-.8,0-1.3.4-1.3.9C248.7,168.6,249.1,168.9,250.5,169.2Z"/>
    <path class="cls-7" d="M259.9,166h1.5l-3.2,7.9H257l-3.2-7.9h1.5l2.4,6Z"/>
  </g>
  <path class="cls-5" d="M237,222.4a17,17,0,1,1,17-17A16.986,16.986,0,0,1,237,222.4Zm0-32a15,15,0,1,0,15,15A14.98,14.98,0,0,0,237,190.4Z"/>
  <path class="cls-5" d="M237,218.4a13,13,0,1,1,13-13A12.974,12.974,0,0,1,237,218.4Zm0-24a11,11,0,1,0,11,11A10.968,10.968,0,0,0,237,194.4Z"/>
  <path class="cls-5" d="M237,214.4a9,9,0,1,1,9-9A8.963,8.963,0,0,1,237,214.4Zm0-16a7,7,0,1,0,7,7A6.957,6.957,0,0,0,237,198.4Z"/>
  <path class="cls-5" d="M237,210.4a5,5,0,1,1,5-5A4.951,4.951,0,0,1,237,210.4Zm0-8a3,3,0,1,0,3,3A2.946,2.946,0,0,0,237,202.4Z"/>
  <path class="cls-3" d="M243.2,228.1l-6.3,3.3-2.1-24.3a2.928,2.928,0,0,1,.7-2.2,3.029,3.029,0,0,1,2.2-1,2.41,2.41,0,0,1,1.8.7l18.9,15.5-6.3,3.3,2.7,5.2-8.9,4.7Z"/>
  <path class="cls-3" d="M243.6,226.8l-5.9,3.1-1.9-22.8a1.883,1.883,0,0,1,3.1-1.6L256.6,220l-5.9,3.1,2.7,5.2-7.2,3.8Z"/>
  <g>
    <polygon class="cls-3" points="237.8 207.1 239.5 226.7 244.5 224.1 247.2 229.3 250.8 227.4 248.1 222.2 253.1 219.6 237.8 207.1"/>
    <path class="cls-5" d="M247.2,230.3a1.05,1.05,0,0,1-.9-.5l-2.3-4.4-4.1,2.1a.746.746,0,0,1-.9,0,1.02,1.02,0,0,1-.5-.8l-1.7-19.6a1.231,1.231,0,0,1,.5-1,1.073,1.073,0,0,1,1.1.1l15.2,12.5a.975.975,0,0,1,.4.9,1.02,1.02,0,0,1-.5.8l-4.1,2.1,2.3,4.4a1.949,1.949,0,0,1,.1.8,1.024,1.024,0,0,1-.5.6l-3.6,1.9A.9.9,0,0,1,247.2,230.3Zm-2.7-7.2a1.05,1.05,0,0,1,.9.5l2.3,4.4,1.9-1-2.3-4.4a1.949,1.949,0,0,1-.1-.8,1.024,1.024,0,0,1,.5-.6l3.6-1.9-12.2-10,1.3,15.7,3.6-1.9Z"/>
  </g>
  <g>
    <path class="cls-4" d="M97,48.2h-.2l-1-.2a1.02,1.02,0,0,1,.4-2l1,.2a1.037,1.037,0,0,1,.8,1.2A1.053,1.053,0,0,1,97,48.2Z"/>
    <path class="cls-4" d="M111,51.3h-.2c-.7-.2-1.3-.3-2-.5a.982.982,0,1,1,.5-1.9c.7.2,1.3.3,2,.5a.949.949,0,0,1,.7,1.2A1.2,1.2,0,0,1,111,51.3Zm-7-1.6h-.2l-2-.4a1.02,1.02,0,1,1,.4-2l2,.4a1.1,1.1,0,0,1,.8,1.2A.974.974,0,0,1,104,49.7Z"/>
    <path class="cls-4" d="M222.8,142.1a.875.875,0,0,1-.9-.6c-.3-.6-.5-1.3-.8-1.9a.985.985,0,1,1,1.8-.8c.3.6.5,1.3.8,1.9a.961.961,0,0,1-.6,1.3A.367.367,0,0,1,222.8,142.1Zm-2.8-6.6a.961.961,0,0,1-.9-.6,10.837,10.837,0,0,1-.8-1.9.985.985,0,0,1,1.8-.8,10.837,10.837,0,0,1,.8,1.9.992.992,0,0,1-.5,1.3C220.3,135.5,220.2,135.5,220,135.5Zm-3-6.5a.961.961,0,0,1-.9-.6l-.9-1.8a.962.962,0,1,1,1.7-.9l.9,1.8a.992.992,0,0,1-.5,1.3C217.3,129,217.1,129,217,129Zm-3.4-6.3a1.05,1.05,0,0,1-.9-.5c-.3-.6-.7-1.2-1-1.8a1.03,1.03,0,1,1,1.8-1c.3.6.7,1.2,1,1.8a1.012,1.012,0,0,1-.4,1.4A.749.749,0,0,1,213.6,122.7Zm-3.6-6.2a.891.891,0,0,1-.8-.5c-.4-.6-.7-1.2-1.1-1.7a1.012,1.012,0,1,1,1.7-1.1c.4.6.7,1.2,1.1,1.7a1.076,1.076,0,0,1-.3,1.4A.845.845,0,0,1,210,116.5Zm-4-6a.909.909,0,0,1-.8-.4c-.4-.6-.8-1.1-1.2-1.7a1,1,0,1,1,1.6-1.2c.4.6.8,1.1,1.2,1.7a1.058,1.058,0,0,1-.2,1.4A.735.735,0,0,1,206,110.5Zm-4.2-5.7a.909.909,0,0,1-.8-.4,18.258,18.258,0,0,0-1.3-1.6,1,1,0,1,1,1.6-1.2c.4.5.9,1.1,1.3,1.6a.978.978,0,0,1-.2,1.4A1.421,1.421,0,0,1,201.8,104.8Zm-4.6-5.6a1.135,1.135,0,0,1-.8-.3c-.4-.5-.9-1-1.3-1.5a.992.992,0,1,1,1.5-1.3c.5.5.9,1,1.4,1.5a.972.972,0,0,1-.1,1.4A1.445,1.445,0,0,1,197.2,99.2Zm-4.8-5.3a.908.908,0,0,1-.7-.3,18.479,18.479,0,0,0-1.4-1.4.99.99,0,0,1,1.4-1.4,19.2,19.2,0,0,1,1.4,1.5.967.967,0,0,1,0,1.4A1.854,1.854,0,0,1,192.4,93.9Zm-5.1-5a1.08,1.08,0,0,1-.7-.3c-.5-.5-1-.9-1.5-1.4a.992.992,0,1,1,1.3-1.5c.5.5,1,.9,1.5,1.4a1.071,1.071,0,0,1,.1,1.4A.867.867,0,0,1,187.3,88.9Zm-5.4-4.7a1.421,1.421,0,0,1-.6-.2c-.5-.4-1-.9-1.6-1.3a1,1,0,1,1,1.2-1.6c.5.4,1.1.9,1.6,1.3a.972.972,0,0,1,.1,1.4A.867.867,0,0,1,181.9,84.2Zm-5.7-4.4a1.421,1.421,0,0,1-.6-.2c-.5-.4-1.1-.8-1.6-1.2a.965.965,0,0,1-.2-1.4.906.906,0,0,1,1.4-.2c.6.4,1.1.8,1.7,1.2a1.075,1.075,0,0,1,.2,1.4A1.222,1.222,0,0,1,176.2,79.8Zm-5.9-4.1a.764.764,0,0,1-.5-.2c-.6-.4-1.1-.7-1.7-1.1a1.012,1.012,0,1,1,1.1-1.7c.6.4,1.2.7,1.7,1.1a.984.984,0,0,1,.3,1.4A1.05,1.05,0,0,1,170.3,75.7Zm-6-3.8a.9.9,0,0,1-.5-.1c-.6-.3-1.2-.7-1.8-1a1.03,1.03,0,0,1,1-1.8c.6.3,1.2.7,1.8,1a1.107,1.107,0,0,1,.4,1.4A1.382,1.382,0,0,1,164.3,71.9ZM158,68.4a.9.9,0,0,1-.5-.1l-1.8-.9a.962.962,0,0,1,.9-1.7l1.8.9a1.012,1.012,0,0,1,.4,1.4A.894.894,0,0,1,158,68.4Zm-6.4-3.2a.6.6,0,0,1-.4-.1l-1.8-.9a.985.985,0,1,1,.8-1.8c.6.3,1.2.6,1.9.9a.992.992,0,0,1,.5,1.3A1.217,1.217,0,0,1,151.6,65.2Zm-6.5-2.9a.6.6,0,0,1-.4-.1c-.6-.3-1.3-.5-1.9-.8a.985.985,0,1,1,.8-1.8c.6.3,1.3.5,1.9.8a.992.992,0,0,1,.5,1.3A1.332,1.332,0,0,1,145.1,62.3Zm-6.7-2.7a.756.756,0,0,1-.4-.1c-.6-.2-1.3-.5-1.9-.7a1.012,1.012,0,0,1,.7-1.9c.6.2,1.3.5,1.9.7a1.04,1.04,0,0,1,.6,1.3A.856.856,0,0,1,138.4,59.6Zm-6.7-2.4a.367.367,0,0,1-.3-.1c-.6-.2-1.3-.4-1.9-.6a1.012,1.012,0,0,1,.7-1.9c.7.2,1.3.4,2,.6a1,1,0,0,1,.6,1.3A1.269,1.269,0,0,1,131.7,57.2ZM124.8,55h-.3c-.7-.2-1.3-.4-2-.6a.982.982,0,1,1,.5-1.9c.7.2,1.3.4,2,.6a1.086,1.086,0,0,1,.7,1.2C125.7,54.8,125.3,55,124.8,55Zm-6.9-1.9h-.3a14.62,14.62,0,0,0-2-.5.982.982,0,1,1,.5-1.9,14.62,14.62,0,0,0,2,.5,1.028,1.028,0,0,1,.7,1.2A.808.808,0,0,1,117.9,53.1Z"/>
    <path class="cls-4" d="M225,148a.961.961,0,0,1-.9-.7l-.3-.9a1.012,1.012,0,0,1,1.9-.7l.3.9a1.04,1.04,0,0,1-.6,1.3A.756.756,0,0,1,225,148Z"/>
  </g>
  <g>
    <path class="cls-4" d="M84,128a1,1,0,0,1-1-1,.945.945,0,0,1,1-1h1a1,1,0,0,1,1,1,.945.945,0,0,1-1,1Z"/>
    <path class="cls-4" d="M98,127.9h0a11.483,11.483,0,0,1-1.9-.1,1,1,0,0,1-1-1,1.075,1.075,0,0,1,1-1h0a12.751,12.751,0,0,1,1.9.1,1,1,0,0,1,0,2Zm-8.4-.1a1,1,0,0,1-1-1,.945.945,0,0,1,1-1h1.9a1,1,0,0,1,0,2Z"/>
    <path class="cls-4" d="M204.7,170.1a1.854,1.854,0,0,1-.7-.2c-.5-.4-.9-.8-1.4-1.2a.992.992,0,0,1,1.3-1.5c.5.4.9.8,1.4,1.2a.972.972,0,0,1,.1,1.4A1.08,1.08,0,0,1,204.7,170.1Zm-5-4.1a1.421,1.421,0,0,1-.6-.2c-.5-.4-1-.8-1.4-1.1a1,1,0,0,1,1.2-1.6l1.5,1.2a1.075,1.075,0,0,1,.2,1.4A1.613,1.613,0,0,1,199.7,166Zm-5.2-4a1.421,1.421,0,0,1-.6-.2c-.5-.4-1-.7-1.5-1.1a1.075,1.075,0,0,1-.2-1.4,1.058,1.058,0,0,1,1.4-.2c.5.4,1,.7,1.5,1.1a1.075,1.075,0,0,1,.2,1.4A.909.909,0,0,1,194.5,162Zm-5.3-3.8a1.421,1.421,0,0,1-.6-.2c-.5-.3-1-.7-1.5-1a1.012,1.012,0,0,1,1.1-1.7c.5.3,1,.7,1.5,1a.984.984,0,0,1,.3,1.4A.749.749,0,0,1,189.2,158.2Zm-5.4-3.5a.764.764,0,0,1-.5-.2c-.5-.3-1-.7-1.6-1a1.012,1.012,0,0,1,1.1-1.7c.5.3,1.1.7,1.6,1a.984.984,0,0,1,.3,1.4A1.193,1.193,0,0,1,183.8,154.7Zm-5.6-3.4a.9.9,0,0,1-.5-.1c-.5-.3-1.1-.6-1.6-.9a1.03,1.03,0,0,1,1-1.8c.5.3,1.1.6,1.6.9a1.107,1.107,0,0,1,.4,1.4A1.05,1.05,0,0,1,178.2,151.3Zm-5.6-3.2a.9.9,0,0,1-.5-.1c-.5-.3-1.1-.6-1.6-.9a.962.962,0,1,1,.9-1.7c.6.3,1.1.6,1.7.9a1.012,1.012,0,0,1,.4,1.4A1.489,1.489,0,0,1,172.6,148.1Zm-5.8-2.9a.6.6,0,0,1-.4-.1c-.6-.3-1.1-.5-1.7-.8a.985.985,0,1,1,.8-1.8c.6.3,1.1.5,1.7.8a.992.992,0,0,1,.5,1.3A1.069,1.069,0,0,1,166.8,145.2Zm-5.9-2.8a.6.6,0,0,1-.4-.1c-.6-.2-1.1-.5-1.7-.7a.985.985,0,0,1,.8-1.8c.6.2,1.1.5,1.7.7a.992.992,0,0,1,.5,1.3A.961.961,0,0,1,160.9,142.4Zm-6-2.5a.756.756,0,0,1-.4-.1,12.2,12.2,0,0,1-1.7-.7,1.012,1.012,0,0,1,.7-1.9,8.651,8.651,0,0,1,1.7.7,1.04,1.04,0,0,1,.6,1.3A.856.856,0,0,1,154.9,139.9Zm-6.1-2.2a.367.367,0,0,1-.3-.1c-.6-.2-1.2-.4-1.7-.6a1,1,0,0,1-.6-1.3,1.04,1.04,0,0,1,1.3-.6l1.8.6a1.04,1.04,0,0,1,.6,1.3A1.515,1.515,0,0,1,148.8,137.7Zm-6.1-2.1h-.3a12.09,12.09,0,0,0-1.8-.5.982.982,0,1,1,.5-1.9,12.09,12.09,0,0,0,1.8.5,1.146,1.146,0,0,1,.7,1.3A1.013,1.013,0,0,1,142.7,135.6Zm-6.3-1.8h-.3c-.6-.2-1.2-.3-1.8-.5a.982.982,0,1,1,.5-1.9c.6.2,1.2.3,1.8.5a1.028,1.028,0,0,1,.7,1.2A.808.808,0,0,1,136.4,133.8Zm-6.3-1.6h-.2c-.6-.1-1.2-.3-1.8-.4a1.02,1.02,0,1,1,.4-2c.6.1,1.2.3,1.8.4a.949.949,0,0,1,.7,1.2A.817.817,0,0,1,130.1,132.2Zm-6.3-1.3h-.2l-1.8-.3a1.02,1.02,0,0,1,.4-2l1.8.3a1.037,1.037,0,0,1,.8,1.2A1.077,1.077,0,0,1,123.8,130.9Zm-6.4-1.1h-.2l-1.8-.3a1,1,0,1,1,.2-2l1.8.3a.991.991,0,0,1,.8,1.1A.765.765,0,0,1,117.4,129.8Zm-6.4-.9h-.1c-.6-.1-1.2-.1-1.8-.2a1.088,1.088,0,0,1-.9-1.1,1.009,1.009,0,0,1,1.1-.9c.6.1,1.2.1,1.9.2a1.172,1.172,0,0,1,.9,1.1A1.273,1.273,0,0,1,111,128.9Zm-6.5-.6h0c-.7,0-1.3-.1-1.9-.1a.9.9,0,0,1-.9-1.1.945.945,0,0,1,1.1-.9c.6,0,1.2.1,1.9.1a.9.9,0,0,1,.9,1.1A1.273,1.273,0,0,1,104.5,128.3Z"/>
    <path class="cls-4" d="M209,174a1.08,1.08,0,0,1-.7-.3l-.7-.7a.992.992,0,0,1,1.3-1.5l.7.7a1.071,1.071,0,0,1,.1,1.4A.755.755,0,0,1,209,174Z"/>
  </g>
  <g>
    <path class="cls-4" d="M370,62.2a.974.974,0,0,1-1-.8,1.012,1.012,0,0,1,.8-1.2l1-.2a1.02,1.02,0,0,1,.4,2l-1,.2Z"/>
    <path class="cls-4" d="M356.5,65.6a1.2,1.2,0,0,1-1-.7.949.949,0,0,1,.7-1.2,13.322,13.322,0,0,1,1.9-.5.982.982,0,1,1,.5,1.9,13.322,13.322,0,0,1-1.9.5Zm6.7-1.8a1.053,1.053,0,0,1-1-.8,1.028,1.028,0,0,1,.7-1.2c.6-.2,1.3-.3,1.9-.5a.982.982,0,1,1,.5,1.9c-.6.2-1.3.3-1.9.5C363.4,63.8,363.3,63.8,363.2,63.8Z"/>
    <path class="cls-4" d="M265.5,145.5a.6.6,0,0,1-.4-.1.992.992,0,0,1-.5-1.3l.9-1.8a.985.985,0,0,1,1.8.8,14.167,14.167,0,0,0-.8,1.8A1.365,1.365,0,0,1,265.5,145.5Zm3-6.3a.9.9,0,0,1-.5-.1.922.922,0,0,1-.4-1.3l.9-1.8a.962.962,0,0,1,1.7.9l-.9,1.8A.792.792,0,0,1,268.5,139.2Zm3.3-6.1a.9.9,0,0,1-.5-.1,1.012,1.012,0,0,1-.4-1.4c.3-.6.7-1.2,1-1.7a1.03,1.03,0,1,1,1.8,1,15.054,15.054,0,0,1-1,1.7A1.193,1.193,0,0,1,271.8,133.1Zm3.5-6a.749.749,0,0,1-.5-.1.984.984,0,0,1-.3-1.4,16.287,16.287,0,0,1,1.1-1.7,1.012,1.012,0,0,1,1.7,1.1c-.3.6-.7,1.1-1,1.7A2.6,2.6,0,0,1,275.3,127.1Zm3.7-5.9a1.421,1.421,0,0,1-.6-.2.984.984,0,0,1-.3-1.4c.4-.6.7-1.1,1.1-1.7a1.012,1.012,0,1,1,1.7,1.1c-.4.5-.7,1.1-1.1,1.6A.838.838,0,0,1,279,121.2Zm4-5.7a1.421,1.421,0,0,1-.6-.2,1.075,1.075,0,0,1-.2-1.4c.4-.5.8-1.1,1.2-1.6a1,1,0,1,1,1.6,1.2c-.4.5-.8,1-1.2,1.6A.909.909,0,0,1,283,115.5Zm4.3-5.5a1.421,1.421,0,0,1-.6-.2.966.966,0,0,1-.1-1.4c.4-.5.9-1,1.3-1.5a.992.992,0,1,1,1.5,1.3,17.383,17.383,0,0,1-1.3,1.5A1.135,1.135,0,0,1,287.3,110Zm4.5-5.3a1.057,1.057,0,0,1-.8-1.7,19.2,19.2,0,0,1,1.4-1.5.99.99,0,1,1,1.4,1.4c-.4.5-.9,1-1.3,1.5A.779.779,0,0,1,291.8,104.7Zm4.8-5a.908.908,0,0,1-.7-.3.967.967,0,0,1,0-1.4,18.479,18.479,0,0,0,1.4-1.4.99.99,0,0,1,1.4,1.4l-1.4,1.4A.779.779,0,0,1,296.6,99.7Zm5.1-4.8a.908.908,0,0,1-.7-.3.972.972,0,0,1,.1-1.4c.5-.4,1-.9,1.5-1.3a.992.992,0,0,1,1.3,1.5c-.5.4-1,.9-1.5,1.3A.844.844,0,0,1,301.7,94.9Zm5.3-4.4a.909.909,0,0,1-.8-.4.978.978,0,0,1,.2-1.4c.5-.4,1-.8,1.6-1.2a1,1,0,0,1,1.2,1.6c-.5.4-1,.8-1.6,1.2A.845.845,0,0,1,307,90.5Zm5.6-4.2a.909.909,0,0,1-.8-.4,1.058,1.058,0,0,1,.2-1.4,15.258,15.258,0,0,1,1.6-1.1,1.012,1.012,0,0,1,1.1,1.7c-.5.4-1.1.7-1.6,1.1A4.331,4.331,0,0,1,312.6,86.3Zm5.8-3.9a.891.891,0,0,1-.8-.5.984.984,0,0,1,.3-1.4c.6-.4,1.1-.7,1.7-1.1a1.012,1.012,0,0,1,1.1,1.7c-.6.3-1.1.7-1.7,1A.6.6,0,0,1,318.4,82.4Zm6-3.6a1.05,1.05,0,0,1-.9-.5,1.012,1.012,0,0,1,.4-1.4,16.179,16.179,0,0,0,1.8-1,1.03,1.03,0,0,1,1,1.8,9.5,9.5,0,0,0-1.7,1A1.486,1.486,0,0,1,324.4,78.8Zm6.2-3.2a.961.961,0,0,1-.9-.6.992.992,0,0,1,.5-1.3l1.8-.9a.985.985,0,0,1,.8,1.8l-1.8.9A.6.6,0,0,1,330.6,75.6Zm6.3-2.9a.875.875,0,0,1-.9-.6.992.992,0,0,1,.5-1.3c.6-.3,1.2-.5,1.8-.8a.985.985,0,0,1,.8,1.8c-.6.3-1.2.5-1.8.8C337.1,72.6,337,72.7,336.9,72.7Zm6.4-2.7a.875.875,0,0,1-.9-.6,1.04,1.04,0,0,1,.6-1.3c.6-.2,1.2-.5,1.9-.7a1.012,1.012,0,0,1,.7,1.9c-.6.2-1.2.5-1.9.7Zm6.6-2.3a.961.961,0,0,1-.9-.7,1.04,1.04,0,0,1,.6-1.3c.6-.2,1.3-.4,1.9-.6a1.012,1.012,0,1,1,.7,1.9c-.6.2-1.3.4-1.9.6A.756.756,0,0,1,349.9,67.7Z"/>
  </g>
  <g>
    <path class="cls-4" d="M398,138h-1a1,1,0,0,1,0-2h1a1,1,0,0,1,0,2Z"/>
    <path class="cls-4" d="M383.7,137.9a1,1,0,0,1-1-1,.945.945,0,0,1,1-1h1.9a1,1,0,0,1,0,2,12.052,12.052,0,0,0-1.9,0Zm8.5-.1h-1.9a1,1,0,0,1-1-1,1.075,1.075,0,0,1,1-1h1.9a1,1,0,0,1,1,1A.945.945,0,0,1,392.2,137.8Z"/>
    <path class="cls-4" d="M272.2,176.3a.909.909,0,0,1-.8-.4.966.966,0,0,1,.1-1.4l1.5-1.2a.992.992,0,0,1,1.3,1.5,17.41,17.41,0,0,0-1.4,1.2A1.329,1.329,0,0,1,272.2,176.3Zm5.2-4.2a.909.909,0,0,1-.8-.4.978.978,0,0,1,.2-1.4l1.5-1.2a1,1,0,1,1,1.2,1.6,14.309,14.309,0,0,1-1.5,1.1A.864.864,0,0,1,277.4,172.1Zm5.4-4a1.234,1.234,0,0,1-.8-.4.984.984,0,0,1,.3-1.4c.5-.4,1.1-.7,1.6-1.1a1.012,1.012,0,1,1,1.1,1.7c-.5.4-1,.7-1.6,1.1A1.268,1.268,0,0,1,282.8,168.1Zm5.5-3.6a.891.891,0,0,1-.8-.5,1.076,1.076,0,0,1,.3-1.4c.5-.3,1.1-.7,1.6-1a1.012,1.012,0,1,1,1.1,1.7c-.5.3-1.1.7-1.6,1A1.421,1.421,0,0,1,288.3,164.5Zm5.8-3.5a1.193,1.193,0,0,1-.9-.5,1.012,1.012,0,0,1,.4-1.4c.6-.3,1.1-.6,1.7-.9a1.03,1.03,0,0,1,1,1.8c-.6.3-1.1.6-1.7.9A.9.9,0,0,1,294.1,161Zm5.9-3.1a1.05,1.05,0,0,1-.9-.5.955.955,0,0,1,.4-1.3c.6-.3,1.1-.6,1.7-.9a.985.985,0,1,1,.8,1.8,13.018,13.018,0,0,1-1.7.8C300.3,157.9,300.1,157.9,300,157.9Zm6-2.9a.961.961,0,0,1-.9-.6.992.992,0,0,1,.5-1.3c.6-.3,1.2-.5,1.8-.8a.985.985,0,1,1,.8,1.8c-.6.3-1.2.5-1.7.8A1.087,1.087,0,0,1,306,155Zm6.1-2.7a.875.875,0,0,1-.9-.6.992.992,0,0,1,.5-1.3c.6-.2,1.2-.5,1.8-.7a1.012,1.012,0,0,1,.7,1.9c-.6.2-1.2.5-1.8.7Zm6.2-2.4a.961.961,0,0,1-.9-.7,1.04,1.04,0,0,1,.6-1.3,13.355,13.355,0,0,0,1.8-.7,1.012,1.012,0,0,1,.7,1.9l-1.8.6C318.6,149.9,318.5,149.9,318.3,149.9Zm6.4-2.2a1.2,1.2,0,0,1-1-.7,1.04,1.04,0,0,1,.6-1.3l1.8-.6a1.044,1.044,0,0,1,.6,2l-1.8.6Zm6.3-1.9a1.2,1.2,0,0,1-1-.7.949.949,0,0,1,.7-1.2,12.09,12.09,0,0,1,1.8-.5.982.982,0,0,1,.5,1.9c-.6.2-1.2.3-1.8.5Zm6.5-1.7a1.053,1.053,0,0,1-1-.8,1.028,1.028,0,0,1,.7-1.2c.6-.2,1.2-.3,1.9-.5a.982.982,0,0,1,.5,1.9,12.09,12.09,0,0,0-1.8.5C337.6,144.1,337.6,144.1,337.5,144.1Zm6.5-1.6a.974.974,0,0,1-1-.8,1.012,1.012,0,0,1,.8-1.2c.6-.1,1.2-.3,1.9-.4a1.02,1.02,0,0,1,.4,2c-.6.1-1.2.3-1.9.4Zm6.5-1.3a.974.974,0,0,1-1-.8,1.1,1.1,0,0,1,.8-1.2c.6-.1,1.3-.2,1.9-.3a1.037,1.037,0,0,1,1.2.8,1.1,1.1,0,0,1-.8,1.2c-.6.1-1.2.2-1.9.3Zm6.6-1a1.063,1.063,0,0,1-1-.9.937.937,0,0,1,.8-1.1c.6-.1,1.3-.2,1.9-.3a1,1,0,0,1,.2,2c-.6.1-1.3.2-1.9.3Zm6.6-.9a1.063,1.063,0,0,1-1-.9.993.993,0,0,1,.9-1.1c.6-.1,1.3-.1,1.9-.2a1,1,0,0,1,.2,2c-.6.1-1.3.1-1.9.2Zm6.7-.7a.987.987,0,0,1-1-.9,1.088,1.088,0,0,1,.9-1.1c.6-.1,1.3-.1,1.9-.2a1.088,1.088,0,0,1,1.1.9c.1.5-.4,1-.9,1.1a13.552,13.552,0,0,1-2,.2Zm6.6-.5a.987.987,0,0,1-1-.9,1.088,1.088,0,0,1,.9-1.1c.6,0,1.3-.1,1.9-.1a1,1,0,0,1,0,2,9.722,9.722,0,0,1-1.8.1Z"/>
    <path class="cls-4" d="M268,180a.908.908,0,0,1-.7-.3.967.967,0,0,1,0-1.4l.7-.7a.9.9,0,0,1,1.4.1.972.972,0,0,1-.1,1.4l-.7.7A1.072,1.072,0,0,1,268,180Z"/>
  </g>
  <g>
    <path class="cls-4" d="M269.8,47.3a1.421,1.421,0,0,1-.6-.2.966.966,0,0,1-.1-1.4,5.008,5.008,0,0,1,.7-.8.992.992,0,0,1,1.5,1.3c-.2.2-.4.5-.6.7A1.222,1.222,0,0,1,269.8,47.3Z"/>
    <path class="cls-4" d="M262.4,59.4a.6.6,0,0,1-.4-.1.992.992,0,0,1-.5-1.3l.9-1.8a.962.962,0,0,1,1.7.9l-.9,1.8A.891.891,0,0,1,262.4,59.4Zm3.4-6.3a.749.749,0,0,1-.5-.1.984.984,0,0,1-.3-1.4c.4-.6.7-1.2,1.1-1.8a1.012,1.012,0,0,1,1.7,1.1c-.4.5-.7,1.1-1.1,1.7A1.058,1.058,0,0,1,265.8,53.1Z"/>
    <path class="cls-4" d="M242.1,141.9h0a1,1,0,0,1-1-1c0-.7.1-1.4.1-2a1,1,0,1,1,2,.2c0,.7-.1,1.4-.1,2A.915.915,0,0,1,242.1,141.9Zm.5-7.1h0a1.028,1.028,0,0,1-1-1.1c.1-.7.1-1.4.2-2,.1-.5.6-1,1.1-.9a.945.945,0,0,1,.9,1.1c-.1.7-.1,1.3-.2,2A1.063,1.063,0,0,1,242.6,134.8Zm.7-7.1h-.1a1.172,1.172,0,0,1-.9-1.1c.1-.7.2-1.4.3-2a1,1,0,0,1,2,.2,13.552,13.552,0,0,0-.2,2A1.147,1.147,0,0,1,243.3,127.7Zm.9-7H244a.991.991,0,0,1-.8-1.1c.1-.7.2-1.3.3-2a.962.962,0,1,1,1.9.3c-.1.7-.2,1.3-.3,2C245.2,120.3,244.7,120.7,244.2,120.7Zm1.2-7.1h-.2a1.037,1.037,0,0,1-.8-1.2,14.159,14.159,0,0,1,.4-2,1.02,1.02,0,1,1,2,.4c-.1.7-.3,1.3-.4,2A.974.974,0,0,1,245.4,113.6Zm1.4-7h-.2a1.037,1.037,0,0,1-.8-1.2c.1-.7.3-1.3.4-2a1.037,1.037,0,0,1,1.2-.8,1.1,1.1,0,0,1,.8,1.2c-.1.7-.3,1.3-.4,2A.974.974,0,0,1,246.8,106.6Zm1.6-6.9h-.2a.949.949,0,0,1-.7-1.2c.2-.7.3-1.3.5-2a.982.982,0,1,1,1.9.5c-.2.7-.3,1.3-.5,2A1.087,1.087,0,0,1,248.4,99.7Zm1.8-6.9h-.3a1.028,1.028,0,0,1-.7-1.2,14.62,14.62,0,0,0,.5-2,.982.982,0,1,1,1.9.5,11.7,11.7,0,0,0-.5,2A.961.961,0,0,1,250.2,92.8Zm1.9-6.8h-.3a1.086,1.086,0,0,1-.7-1.2c.2-.7.4-1.3.6-2a1.044,1.044,0,0,1,2,.6c-.2.6-.4,1.3-.6,1.9A.993.993,0,0,1,252.1,86Zm2.2-6.8a.367.367,0,0,1-.3-.1,1,1,0,0,1-.6-1.3,14.58,14.58,0,0,1,.7-1.9,1.012,1.012,0,1,1,1.9.7,14.58,14.58,0,0,1-.7,1.9A1.2,1.2,0,0,1,254.3,79.2Zm2.4-6.7a.756.756,0,0,1-.4-.1,1.04,1.04,0,0,1-.6-1.3c.2-.6.5-1.3.7-1.9a1.012,1.012,0,1,1,1.9.7c-.2.6-.5,1.3-.7,1.9A.961.961,0,0,1,256.7,72.5Zm2.7-6.6a.6.6,0,0,1-.4-.1.992.992,0,0,1-.5-1.3c.3-.6.5-1.3.8-1.9a.985.985,0,1,1,1.8.8c-.3.6-.5,1.2-.8,1.9A1.149,1.149,0,0,1,259.4,65.9Z"/>
    <path class="cls-4" d="M242,148a.945.945,0,0,1-1-1v-1a1.075,1.075,0,0,1,1-1h0a1,1,0,0,1,1,1v1A.945.945,0,0,1,242,148Z"/>
  </g>
  <g>
    <path class="cls-4" d="M400,221a1.08,1.08,0,0,1-.7-.3l-.7-.7a.992.992,0,1,1,1.3-1.5l.7.7a1.071,1.071,0,0,1,.1,1.4A.755.755,0,0,1,400,221Z"/>
    <path class="cls-4" d="M395.5,217.1a1.072,1.072,0,0,1-.6-.2l-1.5-1.2a.992.992,0,0,1,1.3-1.5,17.383,17.383,0,0,1,1.5,1.3.972.972,0,0,1,.1,1.4A1.884,1.884,0,0,1,395.5,217.1Zm-5.3-4.3a1.421,1.421,0,0,1-.6-.2c-.5-.4-1-.8-1.6-1.2a1.075,1.075,0,0,1-.2-1.4,1.058,1.058,0,0,1,1.4-.2c.5.4,1.1.8,1.6,1.2a1.075,1.075,0,0,1,.2,1.4A.909.909,0,0,1,390.2,212.8Z"/>
    <path class="cls-4" d="M384.6,208.9a1.421,1.421,0,0,1-.6-.2c-.5-.4-1.1-.7-1.6-1.1a1.012,1.012,0,1,1,1.1-1.7c.6.4,1.1.7,1.6,1.1a.984.984,0,0,1,.3,1.4A1.02,1.02,0,0,1,384.6,208.9Zm-5.8-3.7a.749.749,0,0,1-.5-.1c-.6-.3-1.1-.7-1.7-1a1.03,1.03,0,1,1,1-1.8c.6.3,1.1.7,1.7,1a.984.984,0,0,1,.3,1.4A1.02,1.02,0,0,1,378.8,205.2Zm-6-3.4a.9.9,0,0,1-.5-.1c-.6-.3-1.1-.6-1.7-.9a.922.922,0,0,1-.4-1.3.9.9,0,0,1,1.3-.4l1.8.9a1.012,1.012,0,0,1,.4,1.4A1.489,1.489,0,0,1,372.8,201.8Zm-6.2-3.1a.6.6,0,0,1-.4-.1c-.6-.3-1.2-.5-1.8-.8a.985.985,0,0,1,.8-1.8c.6.3,1.2.5,1.8.8a.992.992,0,0,1,.5,1.3A.875.875,0,0,1,366.6,198.7Zm-6.3-2.7a.756.756,0,0,1-.4-.1c-.6-.2-1.2-.5-1.8-.7a1.012,1.012,0,1,1,.7-1.9c.6.2,1.2.5,1.8.7a1.04,1.04,0,0,1,.6,1.3A.856.856,0,0,1,360.3,196Zm-89.6-1.8a1.2,1.2,0,0,1-1-.7.888.888,0,0,1,.7-1.2,13.322,13.322,0,0,1,1.9-.5,1.028,1.028,0,0,1,1.2.7.949.949,0,0,1-.7,1.2,10.548,10.548,0,0,1-1.9.5Zm83.2-.5a.367.367,0,0,1-.3-.1l-1.8-.6a1.044,1.044,0,1,1,.6-2c.6.2,1.3.4,1.9.6a1,1,0,0,1,.6,1.3A1.15,1.15,0,0,1,353.9,193.7Zm-76.6-1.3a1.053,1.053,0,0,1-1-.8,1.028,1.028,0,0,1,.7-1.2c.6-.2,1.3-.3,1.9-.5a.982.982,0,1,1,.5,1.9c-.6.2-1.3.3-1.9.5C277.5,192.4,277.4,192.4,277.3,192.4Zm70-.7H347c-.6-.2-1.3-.3-1.9-.5a.982.982,0,0,1,.5-1.9c.6.2,1.3.3,1.9.5a1.028,1.028,0,0,1,.7,1.2A.961.961,0,0,1,347.3,191.7Zm-63.3-.8a.974.974,0,0,1-1-.8,1.012,1.012,0,0,1,.8-1.2c.6-.1,1.3-.3,1.9-.4a1.02,1.02,0,0,1,.4,2c-.6.1-1.3.3-1.9.4Zm56.6-.8h-.2c-.6-.1-1.3-.3-1.9-.4a1.02,1.02,0,0,1,.4-2c.7.1,1.3.3,1.9.4a1.037,1.037,0,0,1,.8,1.2A1.053,1.053,0,0,1,340.6,190.1Zm-49.8-.5a.974.974,0,0,1-1-.8,1.1,1.1,0,0,1,.8-1.2c.7-.1,1.3-.2,2-.3a.937.937,0,0,1,1.1.8c0,.5-.3,1.1-.8,1.1-.6.1-1.3.2-1.9.3A.31.31,0,0,1,290.8,189.6Zm43-.7h-.1c-.6-.1-1.3-.2-1.9-.3a1.172,1.172,0,0,1-.9-1.1c0-.5.6-.9,1.1-.9.7.1,1.3.2,2,.3a.991.991,0,0,1,.8,1.1A.977.977,0,0,1,333.8,188.9Zm-36.2-.3a1.063,1.063,0,0,1-1-.9.993.993,0,0,1,.9-1.1,13.552,13.552,0,0,1,2-.2,1,1,0,0,1,.2,2c-.6.1-1.3.1-1.9.2Zm29.4-.5h0c-.7-.1-1.4-.1-2-.2a.9.9,0,0,1-.9-1.1.955.955,0,0,1,1.1-.9c.7.1,1.3.1,2,.2a1.009,1.009,0,0,1,.9,1.1A1.273,1.273,0,0,1,327,188.1Zm-22.6-.2a.987.987,0,0,1-1-.9,1.088,1.088,0,0,1,.9-1.1c.7,0,1.3-.1,2-.1a1.172,1.172,0,0,1,1.1.9c.1.5-.4,1-.9,1.1-.7,0-1.3.1-2.1.1Zm15.7-.3h0a13.4,13.4,0,0,1-2-.1,1,1,0,0,1,0-2,13.4,13.4,0,0,1,2,.1,1,1,0,0,1,1,1A.945.945,0,0,1,320.1,187.6Zm-8.8,0a1,1,0,0,1-1-1,.945.945,0,0,1,1-1h2a1,1,0,0,1,1,1,.945.945,0,0,1-1,1Z"/>
    <path class="cls-4" d="M265,196a1.2,1.2,0,0,1-1-.7,1.04,1.04,0,0,1,.6-1.3l1-.3a1.012,1.012,0,0,1,.7,1.9l-.9.3A.756.756,0,0,1,265,196Z"/>
  </g>
  <g>
    <path class="cls-3" d="M44,107a.945.945,0,0,0,1-1v-3.4a1.05,1.05,0,0,0-.5-.9l-16-8.5a.75.75,0,0,0-.9,0l-16,8.5a1.05,1.05,0,0,0-.5.9V106a.945.945,0,0,0,1,1h3v15h-3a.945.945,0,0,0-1,1v3a.945.945,0,0,0,1,1h32a.945.945,0,0,0,1-1v-3a.945.945,0,0,0-1-1h-3V107ZM25,122H21V107h4Zm10,0H31V107h4Z"/>
    <g>
      <path class="cls-4" d="M36,123V106H30v17Zm-4-15h2v13H32Z"/>
      <path class="cls-4" d="M26,123V106H20v17Zm-4-15h2v13H22Z"/>
    </g>
  </g>
  <g>
    <path class="cls-4" d="M112,206a.909.909,0,0,1-.8-.4.966.966,0,0,1,.1-1.4c.3-.2.5-.4.8-.6a.992.992,0,1,1,1.3,1.5c-.3.2-.5.4-.8.6A.713.713,0,0,1,112,206Z"/>
    <path class="cls-4" d="M116.5,202.4a.909.909,0,0,1-.8-.4,1.075,1.075,0,0,1,.2-1.4,9.062,9.062,0,0,1,1.6-1.1,1.058,1.058,0,0,1,1.4.2,1.075,1.075,0,0,1-.2,1.4c-.5.4-1,.7-1.5,1.1A1.078,1.078,0,0,1,116.5,202.4Zm5.6-3.7a1.193,1.193,0,0,1-.9-.5,1.076,1.076,0,0,1,.3-1.4c.5-.3,1.1-.7,1.7-1a1.03,1.03,0,0,1,1,1.8,14,14,0,0,0-1.6,1A.9.9,0,0,1,122.1,198.7Z"/>
    <path class="cls-4" d="M127.9,195.5a.961.961,0,0,1-.9-.6,1.053,1.053,0,0,1,.4-1.3c.6-.3,1.2-.6,1.7-.8a.985.985,0,1,1,.8,1.8c-.6.3-1.1.5-1.7.8A.438.438,0,0,1,127.9,195.5Zm6.1-2.8a.875.875,0,0,1-.9-.6.961.961,0,0,1,.6-1.3c.6-.2,1.2-.5,1.8-.7a1.012,1.012,0,1,1,.7,1.9c-.6.2-1.2.5-1.8.7Zm67.5-1.4h-.3c-.6-.2-1.2-.3-1.8-.5a.982.982,0,0,1,.5-1.9c.6.2,1.2.3,1.9.5a1.086,1.086,0,0,1,.7,1.2A1.2,1.2,0,0,1,201.5,191.3Zm-61.2-.8a1.2,1.2,0,0,1-1-.7,1.015,1.015,0,0,1,.7-1.3l1.8-.6a.949.949,0,0,1,1.2.7,1.028,1.028,0,0,1-.7,1.2,12.09,12.09,0,0,1-1.8.5C140.5,190.5,140.4,190.5,140.3,190.5Zm54.7-.9h-.2c-.6-.1-1.2-.3-1.8-.4a1.02,1.02,0,1,1,.4-2c.6.1,1.2.3,1.9.4a.949.949,0,0,1,.7,1.2A1.053,1.053,0,0,1,195,189.6Zm-48.3-.9a.974.974,0,0,1-1-.8,1.012,1.012,0,0,1,.8-1.2c.6-.1,1.3-.3,1.9-.4a1.02,1.02,0,1,1,.4,2c-.6.1-1.2.3-1.8.4Zm41.7-.4h-.2c-.6-.1-1.2-.2-1.9-.3a.991.991,0,0,1-.8-1.1,1.037,1.037,0,0,1,1.2-.8c.6.1,1.3.2,1.9.3a1.037,1.037,0,0,1,.8,1.2A1.126,1.126,0,0,1,188.4,188.3Zm-35.1-.8a1.077,1.077,0,0,1-1-.8.937.937,0,0,1,.8-1.1c.6-.1,1.3-.2,1.9-.3a.9.9,0,0,1,1.1.9.945.945,0,0,1-.9,1.1c-.6.1-1.3.2-1.9.3C153.4,187.5,153.4,187.5,153.3,187.5Zm28.5-.2h-.1a12.252,12.252,0,0,0-1.9-.2,1.172,1.172,0,0,1-.9-1.1c0-.5.6-.9,1.1-.9.6.1,1.3.1,1.9.2a1.172,1.172,0,0,1,.9,1.1A.987.987,0,0,1,181.8,187.3Zm-21.9-.6a.987.987,0,0,1-1-.9,1.088,1.088,0,0,1,.9-1.1,12.1,12.1,0,0,1,1.9-.1,1,1,0,1,1,.2,2,14.084,14.084,0,0,0-2,.1Zm15.3-.1h0c-.7,0-1.3-.1-2-.1a.865.865,0,0,1-.9-1c.1-.5.5-1,1-.9.6,0,1.3.1,1.9.1a.9.9,0,0,1,.9,1.1C176.2,186.2,175.7,186.6,175.2,186.6Zm-8.6-.2a1,1,0,0,1-1-1,.945.945,0,0,1,1-1h1.9a1,1,0,0,1,1,1,.945.945,0,0,1-1,1h-1.9Z"/>
    <path class="cls-4" d="M207,193h-.3l-.9-.3a1.044,1.044,0,0,1,.6-2l1,.3a1,1,0,0,1,.6,1.3A1.2,1.2,0,0,1,207,193Z"/>
  </g>
  <g>
    <circle class="cls-3" cx="28" cy="101" r="2"/>
    <path class="cls-4" d="M28,99a2,2,0,1,1-2,2,2.006,2.006,0,0,1,2-2m0-1a3,3,0,1,0,3,3,2.946,2.946,0,0,0-3-3Z"/>
  </g>
  <path class="cls-8" d="M218.1,102a4.5,4.5,0,1,1,4.5-4.5A4.546,4.546,0,0,1,218.1,102Zm0-7a2.5,2.5,0,1,0,2.5,2.5A2.54,2.54,0,0,0,218.1,95Z"/>
  <path class="cls-8" d="M135.5,177a4.5,4.5,0,1,1,4.5-4.5A4.481,4.481,0,0,1,135.5,177Zm0-7a2.5,2.5,0,1,0,2.5,2.5A2.476,2.476,0,0,0,135.5,170Z"/>
  <path class="cls-8" d="M306.5,123a4.5,4.5,0,1,1,4.5-4.5A4.481,4.481,0,0,1,306.5,123Zm0-7a2.5,2.5,0,1,0,2.5,2.5A2.476,2.476,0,0,0,306.5,116Z"/>
  <circle class="cls-8" cx="237.6" cy="79" r="2"/>
  <circle class="cls-8" cx="315" cy="100" r="2"/>
  <g>
    <path class="cls-8" d="M269.6,104h-6a1,1,0,0,1,0-2h6a.945.945,0,0,1,1,1A1,1,0,0,1,269.6,104Z"/>
    <path class="cls-8" d="M266.6,107a.945.945,0,0,1-1-1v-6a1,1,0,0,1,2,0v6A1,1,0,0,1,266.6,107Z"/>
  </g>
  <path class="cls-8" d="M170.2,119.2a.908.908,0,0,1-.7-.3l-4.2-4.2a.99.99,0,0,1,1.4-1.4l4.2,4.2a.967.967,0,0,1,0,1.4A.779.779,0,0,1,170.2,119.2Z"/>
  <path class="cls-8" d="M166,119.2a.908.908,0,0,1-.7-.3.967.967,0,0,1,0-1.4l4.2-4.2a.99.99,0,0,1,1.4,1.4l-4.2,4.2A.908.908,0,0,1,166,119.2Z"/>
  <circle class="cls-8" cx="192" cy="118" r="2"/>
  <g>
    <path class="cls-8" d="M341,178a.908.908,0,0,1-.7-.3l-4.2-4.2a.99.99,0,0,1,1.4-1.4l4.2,4.2a.967.967,0,0,1,0,1.4A.908.908,0,0,1,341,178Z"/>
    <path class="cls-8" d="M336.8,178a.908.908,0,0,1-.7-.3.967.967,0,0,1,0-1.4l4.2-4.2a.99.99,0,0,1,1.4,1.4l-4.2,4.2A1.08,1.08,0,0,1,336.8,178Z"/>
  </g>
  <circle class="cls-8" cx="345" cy="155" r="2"/>
  <circle class="cls-8" cx="333" cy="205" r="2"/>
  <g>
    <path class="cls-8" d="M145,208h-6a1,1,0,0,1,0-2h6a1,1,0,0,1,0,2Z"/>
    <path class="cls-8" d="M142,211a.945.945,0,0,1-1-1v-6a1,1,0,0,1,2,0v6A.945.945,0,0,1,142,211Z"/>
  </g>
  <circle class="cls-8" cx="144" cy="152" r="2"/>
  <path class="cls-9" d="M416,245H397a1,1,0,0,1,0-2h19a1,1,0,0,1,0,2Z"/>
  <path class="cls-10" d="M426,245h-6a1,1,0,0,1,0-2h6a1,1,0,0,1,0,2Z"/>
  <path class="cls-11" d="M83,245H64a1,1,0,0,1,0-2H83a1,1,0,0,1,0,2Z"/>
  <path class="cls-12" d="M93,245H87a1,1,0,0,1,0-2h6a1,1,0,0,1,0,2Z"/>
  <path class="cls-3" d="M297.5,36H272.9a2.476,2.476,0,0,1-2.5-2.5h0a12.551,12.551,0,0,1,12.3-12.6h4.9a12.551,12.551,0,0,1,12.3,12.6h0A2.336,2.336,0,0,1,297.5,36Z"/>
  <path class="cls-4" d="M291.6,19.6a9.339,9.339,0,0,0,2.9-6.4,8.9,8.9,0,0,0-8.9-9.1h-.1a9.072,9.072,0,0,0-9,8.9,9.211,9.211,0,0,0,2.7,6.6,14.441,14.441,0,0,0-10.6,12.5h2a12.631,12.631,0,0,1,10.9-11,8.6,8.6,0,0,0,3.9.9h.1a8.6,8.6,0,0,0,3.9-.9,12.592,12.592,0,0,1,10.7,12.4,2.476,2.476,0,0,1-2.5,2.5H281v2h16.5a4.481,4.481,0,0,0,4.5-4.5A14.429,14.429,0,0,0,291.6,19.6Zm-6.1.4h-.1a6.957,6.957,0,0,1-6.9-7.1,7.066,7.066,0,0,1,7-6.9h.1a6.957,6.957,0,0,1,6.9,7.1A7.066,7.066,0,0,1,285.5,20Z"/>
  <path class="cls-3" d="M279.5,33a.472.472,0,0,1,.5.5v7a.472.472,0,0,1-.5.5h-15a.472.472,0,0,1-.5-.5v-7a.472.472,0,0,1,.5-.5h15m0-2h-15a2.476,2.476,0,0,0-2.5,2.5v7a2.476,2.476,0,0,0,2.5,2.5h15a2.476,2.476,0,0,0,2.5-2.5v-7a2.476,2.476,0,0,0-2.5-2.5Z"/>
  <path class="cls-3" d="M272,35a2,2,0,1,1-2,2,2.006,2.006,0,0,1,2-2m0-1a3,3,0,1,0,3,3,2.946,2.946,0,0,0-3-3Z"/>
  <g class="cls-6">
    <path class="cls-7" d="M279.5,33a.472.472,0,0,1,.5.5v7a.472.472,0,0,1-.5.5h-15a.472.472,0,0,1-.5-.5v-7a.472.472,0,0,1,.5-.5h15m0-2h-15a2.476,2.476,0,0,0-2.5,2.5v7a2.476,2.476,0,0,0,2.5,2.5h15a2.476,2.476,0,0,0,2.5-2.5v-7a2.476,2.476,0,0,0-2.5-2.5Z"/>
  </g>
  <path class="cls-5" d="M272,35a2,2,0,1,1-2,2,2.006,2.006,0,0,1,2-2m0-1a3,3,0,1,0,3,3,2.946,2.946,0,0,0-3-3Z"/>
  <path class="cls-3" d="M442,36a.945.945,0,0,0,1-1V31.6a1.05,1.05,0,0,0-.5-.9l-16-8.5a.75.75,0,0,0-.9,0l-16,8.5a1.05,1.05,0,0,0-.5.9V35a.945.945,0,0,0,1,1h3V51h-3a.945.945,0,0,0-1,1v3a.945.945,0,0,0,1,1h32a.945.945,0,0,0,1-1V52a.945.945,0,0,0-1-1h-3V36ZM423,51h-4V36h4Zm10,0h-4V36h4Z"/>
  <circle class="cls-3" cx="426" cy="30" r="2"/>
  <g>
    <path class="cls-4" d="M428,52h6V35h-6Zm2-15h2V50h-2Z"/>
    <path class="cls-4" d="M418,52h6V35h-6Zm2-15h2V50h-2Z"/>
    <path class="cls-4" d="M429,30a3,3,0,1,0-3,3A2.946,2.946,0,0,0,429,30Zm-3,2a2,2,0,1,1,2-2A2.006,2.006,0,0,1,426,32Z"/>
    <path class="cls-4" d="M442,37a2.006,2.006,0,0,0,2-2V31.6a2.107,2.107,0,0,0-1.1-1.8l-16-8.5a2.118,2.118,0,0,0-1.9,0l-16,8.5a1.889,1.889,0,0,0-1.1,1.8V35a2.006,2.006,0,0,0,2,2h2v8.2a14.2,14.2,0,0,0-8.4-6.6,9.339,9.339,0,0,0,2.9-6.4,8.9,8.9,0,0,0-8.9-9.1h-.1a9.072,9.072,0,0,0-9,8.9,8.9,8.9,0,0,0,2.8,6.6,14.456,14.456,0,0,0-10.7,13.5h2a12.723,12.723,0,0,1,11-12,8.6,8.6,0,0,0,3.9.9h.1a8.6,8.6,0,0,0,3.9-.9,12.592,12.592,0,0,1,10.7,12.4,2.476,2.476,0,0,1-2.5,2.5H392v2h50a2.006,2.006,0,0,0,2-2V52a2.006,2.006,0,0,0-2-2h-2V37Zm-44.5,2h-.1a6.957,6.957,0,0,1-6.9-7.1,7.066,7.066,0,0,1,7-6.9h.1a6.957,6.957,0,0,1,6.9,7.1A7.066,7.066,0,0,1,397.5,39ZM442,52v3H413.3a4.3,4.3,0,0,0,.7-2.5V52h0V35h-4V31.6l16-8.5,16,8.5V35h-4V52Z"/>
  </g>
  <path class="cls-3" d="M391.5,52a.472.472,0,0,1,.5.5v7a.472.472,0,0,1-.5.5h-15a.472.472,0,0,1-.5-.5v-7a.472.472,0,0,1,.5-.5h15m0-2h-15a2.476,2.476,0,0,0-2.5,2.5v7a2.476,2.476,0,0,0,2.5,2.5h15a2.476,2.476,0,0,0,2.5-2.5v-7a2.476,2.476,0,0,0-2.5-2.5Z"/>
  <path class="cls-3" d="M384,54a2,2,0,1,1-2,2,2.006,2.006,0,0,1,2-2m0-1a3,3,0,1,0,3,3,2.946,2.946,0,0,0-3-3Z"/>
  <g class="cls-6">
    <path class="cls-7" d="M391.5,52a.472.472,0,0,1,.5.5v7a.472.472,0,0,1-.5.5h-15a.472.472,0,0,1-.5-.5v-7a.472.472,0,0,1,.5-.5h15m0-2h-15a2.476,2.476,0,0,0-2.5,2.5v7a2.476,2.476,0,0,0,2.5,2.5h15a2.476,2.476,0,0,0,2.5-2.5v-7a2.476,2.476,0,0,0-2.5-2.5Z"/>
  </g>
  <path class="cls-5" d="M384,54a2,2,0,1,1-2,2,2.006,2.006,0,0,1,2-2m0-1a3,3,0,1,0,3,3,2.946,2.946,0,0,0-3-3Z"/>
  <path class="cls-3" d="M436.5,137H411.9a2.476,2.476,0,0,1-2.5-2.5h0a12.551,12.551,0,0,1,12.3-12.6h4.9a12.551,12.551,0,0,1,12.3,12.6h0A2.336,2.336,0,0,1,436.5,137Z"/>
  <path class="cls-4" d="M430.6,120.6a9.339,9.339,0,0,0,2.9-6.4,8.9,8.9,0,0,0-8.9-9.1h-.1a9.072,9.072,0,0,0-9,8.9,9.211,9.211,0,0,0,2.7,6.6,14.441,14.441,0,0,0-10.6,12.5h2a12.631,12.631,0,0,1,10.9-11,8.6,8.6,0,0,0,3.9.9h.1a8.6,8.6,0,0,0,3.9-.9,12.592,12.592,0,0,1,10.7,12.4,2.476,2.476,0,0,1-2.5,2.5H420v2h16.5a4.481,4.481,0,0,0,4.5-4.5A14.429,14.429,0,0,0,430.6,120.6Zm-6.1.4h-.1a6.957,6.957,0,0,1-6.9-7.1,7.066,7.066,0,0,1,7-6.9h.1a6.957,6.957,0,0,1,6.9,7.1A7.066,7.066,0,0,1,424.5,121Z"/>
  <path class="cls-3" d="M418.5,134a.472.472,0,0,1,.5.5v7a.472.472,0,0,1-.5.5h-15a.472.472,0,0,1-.5-.5v-7a.472.472,0,0,1,.5-.5h15m0-2h-15a2.476,2.476,0,0,0-2.5,2.5v7a2.476,2.476,0,0,0,2.5,2.5h15a2.476,2.476,0,0,0,2.5-2.5v-7a2.476,2.476,0,0,0-2.5-2.5Z"/>
  <path class="cls-3" d="M411,136a2,2,0,1,1-2,2,2.006,2.006,0,0,1,2-2m0-1a3,3,0,1,0,3,3,2.946,2.946,0,0,0-3-3Z"/>
  <g class="cls-6">
    <path class="cls-7" d="M418.5,134a.472.472,0,0,1,.5.5v7a.472.472,0,0,1-.5.5h-15a.472.472,0,0,1-.5-.5v-7a.472.472,0,0,1,.5-.5h15m0-2h-15a2.476,2.476,0,0,0-2.5,2.5v7a2.476,2.476,0,0,0,2.5,2.5h15a2.476,2.476,0,0,0,2.5-2.5v-7a2.476,2.476,0,0,0-2.5-2.5Z"/>
  </g>
  <path class="cls-5" d="M411,136a2,2,0,1,1-2,2,2.006,2.006,0,0,1,2-2m0-1a3,3,0,1,0,3,3,2.946,2.946,0,0,0-3-3Z"/>
  <path class="cls-3" d="M471,201a.945.945,0,0,0,1-1v-3.4a1.05,1.05,0,0,0-.5-.9l-16-8.5a.75.75,0,0,0-.9,0l-16,8.5a1.05,1.05,0,0,0-.5.9V200a.945.945,0,0,0,1,1h3v15h-3a.945.945,0,0,0-1,1v3a.945.945,0,0,0,1,1h32a.945.945,0,0,0,1-1v-3a.945.945,0,0,0-1-1h-3V201Zm-19,15h-4V201h4Zm10,0h-4V201h4Z"/>
  <circle class="cls-3" cx="455" cy="195" r="2"/>
  <g>
    <path class="cls-4" d="M457,217h6V200h-6Zm2-15h2v13h-2Z"/>
    <path class="cls-4" d="M447,217h6V200h-6Zm2-15h2v13h-2Z"/>
    <path class="cls-4" d="M458,195a3,3,0,1,0-3,3A2.946,2.946,0,0,0,458,195Zm-3,2a2,2,0,1,1,2-2A2.006,2.006,0,0,1,455,197Z"/>
    <path class="cls-4" d="M471,202a2.006,2.006,0,0,0,2-2v-3.4a2.107,2.107,0,0,0-1.1-1.8l-16-8.5a2.118,2.118,0,0,0-1.9,0l-16,8.5a1.889,1.889,0,0,0-1.1,1.8V200a2.006,2.006,0,0,0,2,2h2v8.2a14.2,14.2,0,0,0-8.4-6.6,9.339,9.339,0,0,0,2.9-6.4,8.9,8.9,0,0,0-8.9-9.1h-.1a9.072,9.072,0,0,0-9,8.9,8.9,8.9,0,0,0,2.8,6.6,14.456,14.456,0,0,0-10.7,13.5h2a12.723,12.723,0,0,1,11-12,8.6,8.6,0,0,0,3.9.9h.1a8.6,8.6,0,0,0,3.9-.9,12.592,12.592,0,0,1,10.7,12.4,2.476,2.476,0,0,1-2.5,2.5H421v2h50a2.006,2.006,0,0,0,2-2v-3a2.006,2.006,0,0,0-2-2h-2V202Zm-44.5,2h-.1a6.957,6.957,0,0,1-6.9-7.1,7.066,7.066,0,0,1,7-6.9h.1a6.957,6.957,0,0,1,6.9,7.1A7.066,7.066,0,0,1,426.5,204ZM471,217v3H442.3a4.3,4.3,0,0,0,.7-2.5V217h0V200h-4v-3.4l16-8.5,16,8.5V200h-4v17Z"/>
  </g>
  <path class="cls-3" d="M420.5,217a.472.472,0,0,1,.5.5v7a.472.472,0,0,1-.5.5h-15a.472.472,0,0,1-.5-.5v-7a.472.472,0,0,1,.5-.5h15m0-2h-15a2.476,2.476,0,0,0-2.5,2.5v7a2.476,2.476,0,0,0,2.5,2.5h15a2.476,2.476,0,0,0,2.5-2.5v-7a2.476,2.476,0,0,0-2.5-2.5Z"/>
  <path class="cls-3" d="M413,219a2,2,0,1,1-2,2,2.006,2.006,0,0,1,2-2m0-1a3,3,0,1,0,3,3,2.946,2.946,0,0,0-3-3Z"/>
  <g class="cls-6">
    <path class="cls-7" d="M420.5,217a.472.472,0,0,1,.5.5v7a.472.472,0,0,1-.5.5h-15a.472.472,0,0,1-.5-.5v-7a.472.472,0,0,1,.5-.5h15m0-2h-15a2.476,2.476,0,0,0-2.5,2.5v7a2.476,2.476,0,0,0,2.5,2.5h15a2.476,2.476,0,0,0,2.5-2.5v-7a2.476,2.476,0,0,0-2.5-2.5Z"/>
  </g>
  <path class="cls-5" d="M413,219a2,2,0,1,1-2,2,2.006,2.006,0,0,1,2-2m0-1a3,3,0,1,0,3,3,2.946,2.946,0,0,0-3-3Z"/>
  <path class="cls-4" d="M77.6,29.5a9.339,9.339,0,0,0,2.9-6.4A8.9,8.9,0,0,0,71.6,14h-.1a9.072,9.072,0,0,0-9,8.9A9.345,9.345,0,0,0,65,29.3l.2.2A14.434,14.434,0,0,0,54.5,43.6,4.481,4.481,0,0,0,59,48.1H77v-2H58.9a2.476,2.476,0,0,1-2.5-2.5,12.554,12.554,0,0,1,11-12.5,8.6,8.6,0,0,0,3.9.9h.1a8.6,8.6,0,0,0,3.9-.9A12.6,12.6,0,0,1,86,43h2A14.75,14.75,0,0,0,77.6,29.5Zm-6.2.5a6.957,6.957,0,0,1-6.9-7.1,7.066,7.066,0,0,1,7-6.9h.1a6.957,6.957,0,0,1,6.9,7.1,7.066,7.066,0,0,1-7,6.9Z"/>
  <path class="cls-3" d="M92.5,43a.472.472,0,0,1,.5.5v7a.472.472,0,0,1-.5.5h-15a.472.472,0,0,1-.5-.5v-7a.472.472,0,0,1,.5-.5h15m0-2h-15A2.476,2.476,0,0,0,75,43.5v7A2.476,2.476,0,0,0,77.5,53h15A2.476,2.476,0,0,0,95,50.5v-7A2.476,2.476,0,0,0,92.5,41Z"/>
  <path class="cls-3" d="M85,45a2,2,0,1,1-2,2,2.006,2.006,0,0,1,2-2m0-1a3,3,0,1,0,3,3,2.946,2.946,0,0,0-3-3Z"/>
  <path class="cls-5" d="M92.5,43a.472.472,0,0,1,.5.5v7a.472.472,0,0,1-.5.5h-15a.472.472,0,0,1-.5-.5v-7a.472.472,0,0,1,.5-.5h15m0-2h-15A2.476,2.476,0,0,0,75,43.5v7A2.476,2.476,0,0,0,77.5,53h15A2.476,2.476,0,0,0,95,50.5v-7A2.476,2.476,0,0,0,92.5,41Z"/>
  <path class="cls-5" d="M85,45a2,2,0,1,1-2,2,2.006,2.006,0,0,1,2-2m0-1a3,3,0,1,0,3,3,2.946,2.946,0,0,0-3-3Z"/>
  <path class="cls-4" d="M64,126H44.9a2.476,2.476,0,0,1-2.5-2.5,12.554,12.554,0,0,1,11-12.5,8.6,8.6,0,0,0,3.9.9h.1a8.6,8.6,0,0,0,3.9-.9,12.512,12.512,0,0,1,10.6,11.9h2a14.4,14.4,0,0,0-10.4-13.4,9.339,9.339,0,0,0,2.9-6.4A8.9,8.9,0,0,0,57.5,94h-.1a9.072,9.072,0,0,0-9,8.9,9.345,9.345,0,0,0,2.5,6.4l.2.2a14.736,14.736,0,0,0-9.2,7.5v-9h2a2.006,2.006,0,0,0,2-2v-3.4a2.107,2.107,0,0,0-1.1-1.8l-16-8.5a2.118,2.118,0,0,0-1.9,0l-16,8.5a1.889,1.889,0,0,0-1.1,1.8V106a2.006,2.006,0,0,0,2,2h2v13h-2a2.006,2.006,0,0,0-2,2v3a2.006,2.006,0,0,0,2,2h32a.6.6,0,0,0,.4-.1c.2,0,.3.1.5.1H64ZM50.5,102.9a7.066,7.066,0,0,1,7-6.9h.1a6.957,6.957,0,0,1,6.9,7.1,7.066,7.066,0,0,1-7,6.9h-.1A6.957,6.957,0,0,1,50.5,102.9ZM12,126v-3h4V106H12v-3.4l16-8.5,16,8.5V106H40v17h.5v.5a5.2,5.2,0,0,0,.7,2.5Z"/>
  <path class="cls-3" d="M79.5,123a.472.472,0,0,1,.5.5v7a.472.472,0,0,1-.5.5h-15a.472.472,0,0,1-.5-.5v-7a.472.472,0,0,1,.5-.5h15m0-2h-15a2.476,2.476,0,0,0-2.5,2.5v7a2.476,2.476,0,0,0,2.5,2.5h15a2.476,2.476,0,0,0,2.5-2.5v-7a2.476,2.476,0,0,0-2.5-2.5Z"/>
  <path class="cls-3" d="M72,125a2,2,0,1,1-2,2,2.006,2.006,0,0,1,2-2m0-1a3,3,0,1,0,3,3,2.946,2.946,0,0,0-3-3Z"/>
  <path class="cls-5" d="M79.5,123a.472.472,0,0,1,.5.5v7a.472.472,0,0,1-.5.5h-15a.472.472,0,0,1-.5-.5v-7a.472.472,0,0,1,.5-.5h15m0-2h-15a2.476,2.476,0,0,0-2.5,2.5v7a2.476,2.476,0,0,0,2.5,2.5h15a2.476,2.476,0,0,0,2.5-2.5v-7a2.476,2.476,0,0,0-2.5-2.5Z"/>
  <path class="cls-5" d="M72,125a2,2,0,1,1-2,2,2.006,2.006,0,0,1,2-2m0-1a3,3,0,1,0,3,3,2.946,2.946,0,0,0-3-3Z"/>
  <path class="cls-4" d="M92.6,187.5a9.339,9.339,0,0,0,2.9-6.4,8.9,8.9,0,0,0-8.9-9.1h-.1a9.072,9.072,0,0,0-9,8.9,9.345,9.345,0,0,0,2.5,6.4l.2.2a14.434,14.434,0,0,0-10.7,14.1,4.481,4.481,0,0,0,4.5,4.5H92v-2H73.9a2.476,2.476,0,0,1-2.5-2.5,12.554,12.554,0,0,1,11-12.5,8.6,8.6,0,0,0,3.9.9h.1a8.6,8.6,0,0,0,3.9-.9A12.512,12.512,0,0,1,100.9,201h2A14.528,14.528,0,0,0,92.6,187.5Zm-6.2.5a6.957,6.957,0,0,1-6.9-7.1,7.066,7.066,0,0,1,7-6.9h.1a6.957,6.957,0,0,1,6.9,7.1,7.066,7.066,0,0,1-7,6.9Z"/>
  <path class="cls-3" d="M107.5,201a.472.472,0,0,1,.5.5v7a.472.472,0,0,1-.5.5h-15a.472.472,0,0,1-.5-.5v-7a.472.472,0,0,1,.5-.5h15m0-2h-15a2.476,2.476,0,0,0-2.5,2.5v7a2.476,2.476,0,0,0,2.5,2.5h15a2.476,2.476,0,0,0,2.5-2.5v-7a2.476,2.476,0,0,0-2.5-2.5Z"/>
  <path class="cls-3" d="M100,203a2,2,0,1,1-2,2,2.006,2.006,0,0,1,2-2m0-1a3,3,0,1,0,3,3,2.946,2.946,0,0,0-3-3Z"/>
  <path class="cls-5" d="M107.5,201a.472.472,0,0,1,.5.5v7a.472.472,0,0,1-.5.5h-15a.472.472,0,0,1-.5-.5v-7a.472.472,0,0,1,.5-.5h15m0-2h-15a2.476,2.476,0,0,0-2.5,2.5v7a2.476,2.476,0,0,0,2.5,2.5h15a2.476,2.476,0,0,0,2.5-2.5v-7a2.476,2.476,0,0,0-2.5-2.5Z"/>
  <path class="cls-5" d="M100,203a2,2,0,1,1-2,2,2.006,2.006,0,0,1,2-2m0-1a3,3,0,1,0,3,3,2.946,2.946,0,0,0-3-3Z"/>
</svg>
